<?xml version="1.0" ?><!DOCTYPE svg  PUBLIC '-//W3C//DTD SVG 1.1//EN'  'http://www.w3.org/Graphics/SVG/1.1/DTD/svg11.dtd'><svg height="48px" id="Layer_1" style="enable-background:new 0 0 48 48;" version="1.1" viewBox="0 0 48 48" width="48px" xml:space="preserve" xmlns="http://www.w3.org/2000/svg" xmlns:xlink="http://www.w3.org/1999/xlink"><g><path d="M45.859,32.031c0,1.1-0.9,2-2,2H4.609c-1.1,0-2-0.9-2-2v-23.5   c0-1.1,0.9-2,2-2h39.25c1.1,0,2,0.9,2,2V32.031z" style="fill:none;stroke:#231F20;stroke-miterlimit:10;"/></g><path d="M33.859,40.906c0,0.277-0.225,0.5-0.5,0.5H14.526c-0.276,0-0.5-0.223-0.5-0.5l0,0  c0-0.275,0.224-0.5,0.5-0.5h18.833C33.635,40.406,33.859,40.631,33.859,40.906L33.859,40.906z" style="fill:#231F20;"/><path d="M18.648,37.373c0.19-0.19,0.19-0.497,0-0.688l0,0c-0.191-0.189-0.498-0.189-0.688,0l-3.808,3.808  c-0.189,0.19-0.189,0.497,0,0.688l0,0c0.191,0.19,0.498,0.19,0.688,0L18.648,37.373z" style="fill:#231F20;"/><path d="M18.812,36.982c0,0.263-0.213,0.477-0.477,0.477l0,0c-0.263,0-0.477-0.214-0.477-0.477v-2.703  c0-0.264,0.213-0.477,0.477-0.477l0,0c0.263,0,0.477,0.213,0.477,0.477V36.982z" style="fill:#231F20;"/><path d="M29.258,37.352c-0.189-0.189-0.189-0.496,0-0.688l0,0c0.191-0.189,0.498-0.189,0.688,0l3.809,3.809  c0.189,0.189,0.189,0.496,0,0.688l0,0c-0.191,0.189-0.498,0.189-0.688,0L29.258,37.352z" style="fill:#231F20;"/><path d="M29.094,36.961c0,0.264,0.213,0.477,0.477,0.477l0,0c0.264,0,0.477-0.213,0.477-0.477v-2.703  c0-0.264-0.213-0.477-0.477-0.477l0,0c-0.264,0-0.477,0.213-0.477,0.477V36.961z" style="fill:#231F20;"/><rect height="17.917" style="fill:none;stroke:#231F20;stroke-miterlimit:10;" width="37.75" x="5.317" y="10.365"/><circle cx="24.068" cy="8.476" r="0.397" style="fill:#231F20;"/><circle cx="24.073" cy="31.146" r="1.393" style="fill:#231F20;"/><rect height="0.379" style="fill:#231F20;" width="14.021" x="17.025" y="39.607"/><rect height="0.379" style="fill:#231F20;" width="11.73" x="18.129" y="38.732"/><rect height="0.38" style="fill:#231F20;" width="10.126" x="18.9" y="37.837"/><rect height="0.38" style="fill:#231F20;" width="10.855" x="18.4" y="36.899"/><rect height="0.75" style="fill:#231F20;" transform="matrix(0.707 0.7072 -0.7072 0.707 20.231 -25.0898)" width="3.637" x="38.579" y="11.498"/><rect height="0.75" style="fill:#231F20;" transform="matrix(0.7071 0.7071 -0.7071 0.7071 20.676 -23.7177)" width="7.019" x="35.458" y="12.724"/><rect height="0.75" style="fill:#231F20;" transform="matrix(0.7071 0.7071 -0.7071 0.7071 20.9981 -22.1305)" width="10.745" x="31.841" y="13.907"/></svg>